<?xml version="1.0" encoding="UTF-8"?>
<svg version="1.1" xmlns="http://www.w3.org/2000/svg" width="3240" height="3240">
<path d="M0 0 C1.08277473 -0.00066278 1.08277473 -0.00066278 2.18742371 -0.00133896 C25.88542804 -0.00893442 49.37291741 0.53885106 72.9375 3.25 C73.68962769 3.33485657 74.44175537 3.41971313 75.2166748 3.50714111 C155.2642 12.5870645 232.71166406 35.56111126 377.9375 116.25 C378.618125 116.71712402 379.29875 117.18424805 380 117.66552734 C395.1333785 128.1227245 409.89673411 139.36609875 423.9375 151.25 C424.46859375 151.69762695 424.9996875 152.14525391 425.546875 152.60644531 C432.85500639 158.77473865 440.01832297 165.07151414 447.0234375 171.58203125 C448.51621754 172.94874542 450.01216389 174.3133522 451.55541992 175.62280273 C458.2350798 181.29724937 464.36380732 187.52569785 470.54663086 193.72875977 C472.4954687 195.68295624 474.44959272 197.63175147 476.40429688 199.58007812 C482.46307269 205.63561555 488.39874204 211.70909517 493.9375 218.25 C495.55717817 220.02570221 497.18161718 221.79708307 498.8125 223.5625 C502.85152153 227.99631311 506.71256878 232.53054584 510.4765625 237.19921875 C512.27030236 239.42288674 514.07622383 241.63198478 515.8984375 243.83203125 C544.66404999 278.66241584 569.03648977 317.2598716 589.9375 357.25 C590.46553223 358.25546875 590.99356445 359.2609375 591.53759766 360.296875 C630.78410783 435.47463257 653.20233519 518.78317606 663.1875 660.75 C663.18794186 661.40726326 663.18838371 662.06452652 663.18883896 662.74170685 C663.21905058 748.79192805 647.95910415 834.38811003 564.9375 1013.25 C563.81694893 1015.06854271 562.6970976 1016.88751686 561.578125 1018.70703125 C555.88387114 1027.91162726 549.86569747 1036.76608592 543.33496094 1045.39648438 C541.89036262 1047.31252044 540.4632422 1049.24062264 539.0390625 1051.171875 C531.94660299 1060.76102058 524.54790838 1070.06766848 516.9375 1079.25 C516.45925781 1079.82878906 515.98101563 1080.40757813 515.48828125 1081.00390625 C509.16287055 1088.64046651 502.59024206 1096.00199101 495.80810547 1103.23583984 C494.36004524 1104.79502764 492.92386913 1106.36525713 491.49267578 1107.93994141 C483.55190304 1116.66145066 475.29662114 1125.0448926 466.9453125 1133.37255859 C464.67330631 1135.63915993 462.40675556 1137.91111959 460.140625 1140.18359375 C458.67219583 1141.65136271 457.2034568 1143.11882176 455.734375 1144.5859375 C455.06960144 1145.25273529 454.40482788 1145.91953308 453.71990967 1146.60653687 C449.28577471 1151.01887921 444.68010181 1155.17293466 439.9375 1159.25 C438.74616772 1160.29547721 437.55588156 1161.34214915 436.3671875 1162.390625 C428.63510888 1169.1682987 420.75962634 1175.68890072 412.61083984 1181.95898438 C410.99041323 1183.20917637 409.37896193 1184.47007278 407.76953125 1185.734375 C399.03832698 1192.54579895 390.05149188 1198.96177007 380.9375 1205.25 C380.24060059 1205.73194824 379.54370117 1206.21389648 378.82568359 1206.71044922 C360.64507962 1219.22206039 341.61247079 1230.46069048 322.22900391 1240.99902344 C319.7645487 1242.34441748 317.30975458 1243.70646176 314.85546875 1245.0703125 C244.85454223 1283.84044961 169.34306906 1307.65265699 42.99267578 1320.56738281 C41.82591309 1320.63022461 40.65915039 1320.69306641 39.45703125 1320.7578125 C38.45776611 1320.80566895 37.45850098 1320.85352539 36.42895508 1320.90283203 C33.45473178 1321.19856978 30.66606701 1321.67957607 27.74047852 1322.26196289 C21.98048526 1323.34183387 16.41920247 1323.55535553 10.5703125 1323.55078125 C9.50961044 1323.5563353 8.44890839 1323.56188934 7.35606384 1323.56761169 C3.92473468 1323.57937379 0.49382898 1323.57312507 -2.9375 1323.5625 C-4.1152298 1323.56100952 -5.29295959 1323.55951904 -6.50637817 1323.5579834 C-27.16020382 1323.51107749 -47.54269803 1322.56067537 -68.0625 1320.25 C-69.96902344 1320.04117188 -69.96902344 1320.04117188 -71.9140625 1319.828125 C-156.06531504 1310.34134496 -239.85128884 1284.30200012 -313.6484375 1242.60546875 C-315.9210509 1241.32942207 -318.20614691 1240.0811152 -320.5 1238.84375 C-340.75406349 1227.87575471 -360.27526587 1215.56633905 -379.0625 1202.25 C-379.83029785 1201.70746582 -380.5980957 1201.16493164 -381.38916016 1200.60595703 C-391.50851194 1193.43554127 -401.40528467 1186.03137534 -411.0625 1178.25 C-412.45662109 1177.13044922 -412.45662109 1177.13044922 -413.87890625 1175.98828125 C-424.88437998 1167.06535713 -435.58591647 1157.78647724 -446.0625 1148.25 C-446.92560791 1147.47172852 -447.78871582 1146.69345703 -448.67797852 1145.89160156 C-456.02375922 1139.22804239 -463.11908413 1132.34923727 -470.11889648 1125.32397461 C-471.88737219 1123.55008997 -473.66120044 1121.78168223 -475.43554688 1120.01367188 C-481.19334061 1114.2592465 -486.78452671 1108.45293143 -492.0625 1102.25 C-493.68217817 1100.47429779 -495.30661718 1098.70291693 -496.9375 1096.9375 C-500.97652153 1092.50368689 -504.83756878 1087.96945416 -508.6015625 1083.30078125 C-510.39530236 1081.07711326 -512.20122383 1078.86801522 -514.0234375 1076.66796875 C-522.43491994 1066.47877523 -530.35450801 1055.9796945 -538.0625 1045.25 C-538.65208496 1044.42951172 -539.24166992 1043.60902344 -539.84912109 1042.76367188 C-548.36625651 1030.86155092 -556.4006476 1018.71862076 -564.0625 1006.25 C-564.44680176 1005.62915527 -564.83110352 1005.00831055 -565.22705078 1004.36865234 C-572.92538827 991.90845662 -580.00624861 979.08103203 -587.0625 966.25 C-587.55008789 965.36570312 -588.03767578 964.48140625 -588.54003906 963.5703125 C-626.02448438 895.15520548 -647.46888322 817.05859084 -660.265625 682.8984375 C-660.27264424 681.36118032 -660.27973108 679.82392345 -660.28688049 678.28666687 C-660.30629252 673.39944036 -660.31131432 668.51226117 -660.3125 663.625 C-660.31294186 662.79344769 -660.31338371 661.96189537 -660.31383896 661.1051445 C-660.32064567 636.69860497 -660.14373451 612.497061 -657.0625 588.25 C-656.8886715 586.82265057 -656.71534495 585.39523994 -656.54248047 583.96777344 C-651.20717997 540.49799596 -641.71685649 497.85649829 -628.0625 456.25 C-627.48677246 454.47810303 -627.48677246 454.47810303 -626.89941406 452.67041016 C-603.08478447 379.80874785 -565.28574561 310.02615548 -513.49951172 246.99121094 C-511.41746868 244.4684228 -509.36843205 241.9190823 -507.3125 239.375 C-503.72201125 234.98881686 -499.98411279 230.76084589 -496.16796875 226.5703125 C-494.33332315 224.54845816 -492.53481214 222.50321478 -490.75 220.4375 C-482.03027015 210.4526012 -472.87739372 200.89879122 -463.48828125 191.54541016 C-461.79568653 189.85824042 -460.10859403 188.16569804 -458.421875 186.47265625 C-452.80208471 180.84942658 -447.11496252 175.41067028 -441.0625 170.25 C-439.28679779 168.63032183 -437.51541693 167.00588282 -435.75 165.375 C-431.31618689 161.33597847 -426.78195416 157.47493122 -422.11328125 153.7109375 C-419.88961326 151.91719764 -417.68051522 150.11127617 -415.48046875 148.2890625 C-405.29127523 139.87758006 -394.7921945 131.95799199 -384.0625 124.25 C-383.24201172 123.66041504 -382.42152344 123.07083008 -381.57617188 122.46337891 C-331.45783255 86.59878933 -276.21174205 57.65280648 -218.0625 37.25 C-216.33241699 36.63777588 -216.33241699 36.63777588 -214.56738281 36.01318359 C-160.44016542 16.98327164 -104.2452943 5.64712492 -47.0625 1.25 C-45.96236572 1.1557373 -44.86223145 1.06147461 -43.72875977 0.96435547 C-29.18231496 -0.13858962 -14.5798654 0.00408839 0 0 Z " fill="#FFB500" transform="translate(1288.0625,1204.75)"/>
<path d="M0 0 C1.40378906 -0.04350586 1.40378906 -0.04350586 2.8359375 -0.08789062 C18.95892181 -0.22875003 34.80234405 6.2738909 49.9375 11.25 C50.94089417 11.57852966 51.94428833 11.90705933 52.97808838 12.24554443 C124.70028108 35.76885703 194.96746287 66.12498903 260.42236328 103.76416016 C263.04393084 105.2660555 265.67432939 106.75097783 268.30859375 108.23046875 C312.63021396 133.18302566 355.03775095 162.02734453 395.125 193.3125 C395.69557129 193.7569043 396.26614258 194.20130859 396.85400391 194.65917969 C408.58906604 203.80529575 420.08901095 213.21153829 431.41601562 222.85791016 C432.56738858 223.83789302 433.71975354 224.81671145 434.87304688 225.79443359 C442.12051407 231.93876421 449.25075717 238.17577576 456.2109375 244.64453125 C458.46500703 246.7082437 460.73879681 248.73171652 463.04296875 250.73828125 C476.33727456 262.33720368 488.77041065 274.85348579 501.25 287.3125 C501.98000214 288.03991394 502.71000427 288.76732788 503.46212769 289.51678467 C505.58450366 291.6332328 507.7030332 293.75345437 509.8203125 295.875 C510.45212936 296.50483795 511.08394623 297.1346759 511.73490906 297.78359985 C515.51202832 301.58008863 519.0936738 305.49778983 522.5954895 309.54940796 C524.27345742 311.48362932 526.0029457 313.35727565 527.7734375 315.20703125 C528.6857312 316.166698 528.6857312 316.166698 529.61645508 317.14575195 C530.2380249 317.79890381 530.85959473 318.45205566 531.5 319.125 C536.58563619 324.5049857 541.41578536 329.95753788 546.02734375 335.75 C548.25717861 338.47396959 550.60454118 341.04585185 553 343.625 C557.26477998 348.25948227 561.17220813 353.08123955 565.0234375 358.05664062 C567.93719201 361.81751196 570.92520064 365.49295545 574 369.125 C593.92281614 392.88154417 611.93091645 418.56950158 628.92285156 444.48046875 C629.72704756 445.7060347 630.53370812 446.92998684 631.34277344 448.15234375 C645.54585052 469.61873833 658.67696027 491.78955097 671.125 514.3125 C671.62354492 515.20662598 672.12208984 516.10075195 672.63574219 517.02197266 C700.29000978 566.68003935 723.3402045 618.68128303 742.125 672.3125 C742.35513794 672.96661865 742.58527588 673.6207373 742.8223877 674.29467773 C756.72852592 713.86320105 768.25078755 754.32025012 777.125 795.3125 C777.29539795 796.0972168 777.4657959 796.88193359 777.64135742 797.69042969 C789.29570591 851.56378931 796.64744474 906.30899095 800.125 961.3125 C800.19608978 962.42609894 800.19608978 962.42609894 800.26861572 963.56219482 C801.14015824 977.65556537 801.40565047 991.74973857 801.47509766 1005.86816406 C801.49174813 1008.33831137 801.51915523 1010.80840878 801.55712891 1013.27832031 C801.9252448 1037.52275316 798.35751952 1057.23678233 781.11816406 1075.26000977 C779.7922944 1076.61592942 778.45889724 1077.96447677 777.125 1079.3125 C776.53074219 1079.96734375 775.93648437 1080.6221875 775.32421875 1081.296875 C761.50033723 1096.25273689 737.92439244 1107.30748489 717.63012695 1108.45336914 C698.96289468 1109.09166083 682.22312437 1108.08681745 667.5546875 1095.0234375 C657.01707391 1084.06849268 653.93239101 1071.49030391 653.59765625 1056.72265625 C653.52903548 1054.40917537 653.46026297 1052.09569898 653.39135742 1049.78222656 C653.35851654 1048.57441528 653.32567566 1047.366604 653.2918396 1046.12219238 C650.73251854 954.20820736 637.60132535 863.50463028 552.72216797 629.56982422 C551.29830144 626.66593746 549.88440114 623.75744647 548.47265625 620.84765625 C542.6922255 609.01879717 536.31581764 597.57059298 529.75537109 586.15869141 C528.17405619 583.39813897 526.60965248 580.6287453 525.05078125 577.85546875 C515.12095634 560.22744027 504.19793594 543.34078702 493 526.5 C492.53668274 525.80225464 492.07336548 525.10450928 491.5960083 524.38562012 C485.28615731 514.89332934 478.8143806 505.54123488 472.125 496.3125 C471.49207031 495.43875732 470.85914062 494.56501465 470.20703125 493.66479492 C457.82184992 476.64388764 444.85058908 460.1726824 431.2043457 444.14379883 C428.34991203 440.78491141 425.56576506 437.38035835 422.8125 433.9375 C417.94543639 427.94794244 412.65589616 422.37984747 407.36328125 416.76953125 C404.36415174 413.58525971 401.48076016 410.31644164 398.62890625 407 C396.50640652 404.61838992 394.23059618 402.40633102 391.95361328 400.17358398 C390.24477487 398.43440171 388.66591014 396.64434238 387.08984375 394.78515625 C382.82019434 389.87635805 378.24504596 385.28190585 373.63696289 380.6940918 C372.18975615 379.25224779 370.74797974 377.80512884 369.30664062 376.35742188 C364.59858912 371.64634547 359.82554194 367.07171877 354.76733398 362.73657227 C352.7869289 361.01935763 350.94524492 359.19775366 349.125 357.3125 C345.9538397 354.09815269 342.66917247 351.09499037 339.24609375 348.15234375 C336.90008942 346.11741181 334.6076355 344.02959033 332.3125 341.9375 C328.01891368 338.06216257 323.59411998 334.3902869 319.09765625 330.75390625 C315.78747734 328.03529677 312.55025024 325.2414311 309.3125 322.4375 C303.04512187 317.03120364 296.61041417 311.88136449 290.06445312 306.81787109 C287.94765748 305.1748497 285.84061113 303.51981492 283.734375 301.86328125 C275.26796859 295.21722893 266.72696048 288.73795434 257.90869141 282.56640625 C256.0396574 281.25250553 254.18125101 279.92455283 252.32421875 278.59375 C182.21398298 228.48452268 105.62113744 187.96625127 -52.4375 130.25 C-66.70261061 126.05263137 -79.19338721 119.57803062 -86.58984375 106.0625 C-93.40390696 91.48164742 -93.68670769 76.60093521 -88.65429688 61.39794922 C-84.43846914 50.11611948 -78.02675625 40.14111688 -69.875 31.3125 C-69.26398438 30.6215625 -68.65296875 29.930625 -68.0234375 29.21875 C-50.66271043 10.60214054 -25.17825467 0.24978427 0 0 Z " fill="#FFB500" transform="translate(1810.875,711.6875)"/>
<path d="M0 0 C1.14976318 0.35304199 2.29952637 0.70608398 3.48413086 1.06982422 C60.28263877 18.7876304 114.85806545 43.51879528 165.5625 74.625 C166.45678711 75.17285156 167.35107422 75.72070312 168.27246094 76.28515625 C192.05193214 90.92149872 214.80037467 107.1345962 236.5625 124.625 C237.490625 125.37007812 238.41875 126.11515625 239.375 126.8828125 C250.59408498 135.98201224 261.49577824 145.42346307 272.078125 155.25390625 C273.55366257 156.616837 275.04054858 157.96618589 276.53125 159.3125 C283.34427456 165.48975819 289.92426683 171.88247963 296.4375 178.375 C297.23422119 179.16712891 298.03094238 179.95925781 298.85180664 180.77539062 C303.04875343 184.98334147 307.08211853 189.27114132 310.95849609 193.77587891 C313.37826785 196.56543009 315.9117241 199.24433037 318.4375 201.9375 C323.73613208 207.63972756 328.69349691 213.5506411 333.5625 219.625 C334.56886432 220.85275097 335.57677721 222.07923366 336.5859375 223.3046875 C362.96616537 255.39507601 385.85790084 290.06671136 405.5625 326.625 C406.02092285 327.47336426 406.4793457 328.32172852 406.95166016 329.19580078 C449.42860826 408.18423727 475.75119994 496.96960988 483.75 609.875 C483.79306274 610.73527802 483.83612549 611.59555603 483.88049316 612.48190308 C485.14615724 638.39913862 486.3138176 663.43650581 468.51953125 684.484375 C467.87371094 685.19078125 467.22789062 685.8971875 466.5625 686.625 C465.76199219 687.51703125 464.96148438 688.4090625 464.13671875 689.328125 C449.51947271 704.81267507 429.32060229 714.21396183 407.98193359 715.02758789 C391.60274511 715.27681368 376.44141327 711.25719258 364.1875 699.8125 C351.63617113 686.32177853 349.40366703 670.40759714 349.15686035 652.62039185 C347.93091331 573.43525106 329.71139794 493.80970706 287.5625 406.625 C287.0483252 405.59552246 286.53415039 404.56604492 286.00439453 403.50537109 C268.06511151 367.71437071 245.41770765 334.1811545 219.5625 303.625 C219.12019043 303.09922363 218.67788086 302.57344727 218.22216797 302.03173828 C216.73596472 300.26728001 215.24405605 298.50781254 213.75 296.75 C213.31268555 296.2331665 212.87537109 295.71633301 212.42480469 295.18383789 C203.1486664 284.3523895 193.23053411 274.12728359 183.13378906 264.06591797 C181.2963424 262.23389005 179.4643835 260.39649395 177.6328125 258.55859375 C171.77903409 252.70116209 165.90502232 246.9581552 159.5625 241.625 C158.44397405 240.65257908 157.3267593 239.67864765 156.2109375 238.703125 C148.75338172 232.2433636 141.16163758 226.0017166 133.33691406 219.99169922 C131.61009034 218.6616553 129.89489051 217.31763245 128.1796875 215.97265625 C74.64351596 174.47953737 12.74962195 143.82623479 -51.50390625 122.99609375 C-52.86255105 122.55298533 -54.22119364 122.10987014 -55.57983398 121.66674805 C-58.15436472 120.82784109 -60.73256746 120.00831241 -63.31665039 119.19848633 C-79.22822543 114.06020335 -91.55487217 105.68338958 -99.4375 90.625 C-105.09391048 77.17022948 -104.98573566 62.36815364 -100.4375 48.625 C-100.17066406 47.78710938 -99.90382813 46.94921875 -99.62890625 46.0859375 C-92.97996329 27.46889721 -77.13978616 12.14496326 -59.50439453 3.69921875 C-52.4274288 0.51256619 -45.15432936 -2.28259947 -37.4375 -3.375 C-36.61378906 -3.49617188 -35.79007813 -3.61734375 -34.94140625 -3.7421875 C-22.8931247 -5.17609038 -11.51008017 -3.62584728 0 0 Z " fill="#FFB500" transform="translate(1801.4375,1044.375)"/>
</svg>
